<?xml version="1.0" standalone="no"?>
<!DOCTYPE svg PUBLIC "-//W3C//DTD SVG 20010904//EN"
 "http://www.w3.org/TR/2001/REC-SVG-20010904/DTD/svg10.dtd">
<svg version="1.0" xmlns="http://www.w3.org/2000/svg"
 width="512.000000pt" height="512.000000pt" viewBox="0 0 512.000000 512.000000"
 preserveAspectRatio="xMidYMid meet">
<metadata>
Created by potrace 1.11, written by Peter Selinger 2001-2013
</metadata>
<g transform="translate(0.000000,512.000000) scale(0.100000,-0.100000)"
fill="#000000" stroke="none">
<path d="M2307 3973 c-16 -8 -31 -21 -34 -29 -3 -8 -10 -14 -17 -14 -6 0 -20
-13 -30 -28 -10 -16 -34 -39 -52 -52 -19 -12 -34 -26 -34 -31 0 -4 -33 -42
-72 -84 -40 -42 -75 -82 -78 -88 -3 -7 -33 -39 -67 -71 -35 -32 -63 -65 -63
-72 0 -13 -53 -71 -105 -114 -48 -40 -255 -297 -255 -316 0 -4 -10 -16 -22
-28 -13 -12 -36 -39 -53 -61 -29 -40 -151 -165 -160 -165 -3 0 -5 14 -5 30 0
34 -1 34 -47 18 -39 -14 -42 -45 -4 -40 16 1 22 -2 18 -12 -3 -7 -1 -18 5 -24
6 -6 -5 -31 -34 -73 -31 -46 -48 -86 -62 -141 -15 -65 -21 -78 -38 -78 -20 0
-42 17 -44 35 -3 25 -17 55 -28 57 -6 1 -22 2 -35 2 -18 1 -30 11 -45 39 -11
21 -30 40 -42 43 -12 3 -25 12 -28 20 -3 8 -10 14 -16 14 -18 0 -11 -26 15
-50 14 -13 25 -28 25 -34 0 -6 35 -51 76 -101 114 -135 129 -166 126 -245 -2
-36 -4 -72 -4 -80 -1 -25 12 -121 16 -129 3 -4 6 -33 7 -65 1 -31 6 -59 11
-62 5 -3 8 -22 8 -42 -1 -83 14 -139 48 -177 28 -30 60 -94 62 -123 2 -51 27
-133 44 -144 5 -3 9 -20 9 -37 0 -25 5 -31 21 -31 15 0 17 -3 8 -12 -18 -18
-14 -30 7 -23 15 4 18 2 15 -12 -2 -11 11 -35 31 -58 l35 -40 20 24 c15 18 20
19 20 7 0 -9 4 -16 9 -16 5 0 16 -3 25 -6 12 -5 16 0 16 20 0 16 9 31 25 42
20 13 25 25 25 55 0 30 -3 37 -15 33 -20 -8 -57 34 -50 57 3 9 -1 19 -9 22 -9
4 -12 14 -9 26 3 13 1 21 -6 21 -7 0 -10 4 -6 9 3 5 -2 16 -11 25 -8 9 -19 30
-24 46 -14 48 -14 182 -1 223 7 21 10 44 8 51 -10 26 6 25 38 -2 32 -27 60
-48 180 -137 33 -24 65 -49 72 -55 7 -5 16 -10 22 -10 5 0 11 -3 13 -7 2 -5
27 -26 56 -48 28 -21 52 -43 52 -47 0 -4 5 -8 11 -8 11 0 70 -48 199 -161 41
-36 89 -75 106 -87 39 -27 116 -32 141 -9 11 9 35 16 59 15 23 0 58 5 77 11
20 7 42 11 49 10 7 -1 26 3 41 9 16 7 33 10 38 7 5 -4 23 1 41 9 18 8 49 18
68 21 19 4 40 11 46 17 7 5 16 8 20 7 29 -7 181 54 232 92 13 10 37 21 55 24
18 4 46 21 64 38 81 82 93 89 123 83 21 -4 32 -1 39 11 6 11 21 16 44 15 23
-1 37 4 41 13 3 8 2 16 -2 16 -46 7 -70 6 -100 -6 -19 -8 -54 -15 -77 -15 -34
0 -44 4 -48 20 -5 19 -37 29 -37 11 0 -11 -35 -22 -85 -27 -22 -2 -56 -6 -75
-10 -19 -3 -57 -8 -85 -9 -78 -5 -232 -24 -322 -40 -45 -8 -94 -15 -110 -15
-15 0 -40 -6 -54 -14 -30 -15 -52 -7 -82 31 -10 13 -27 23 -37 23 -10 0 -21 8
-25 18 -11 36 -178 182 -208 182 -8 0 -18 7 -21 15 -3 9 -22 23 -41 31 -19 8
-35 18 -35 22 0 14 -109 92 -129 92 -13 0 -51 29 -96 75 -42 41 -80 75 -85 75
-16 0 -157 144 -157 160 -1 21 -50 127 -62 135 -13 7 -13 60 -2 90 8 19 8 19
22 -3 8 -12 19 -22 26 -22 7 0 16 -12 19 -27 4 -16 17 -38 30 -51 13 -13 24
-27 24 -32 0 -5 7 -7 14 -4 8 3 21 1 28 -5 7 -6 24 -20 37 -31 13 -11 22 -23
18 -26 -4 -5 20 -31 66 -70 7 -6 17 -9 22 -8 6 2 24 -16 42 -39 40 -53 59 -73
111 -117 23 -19 42 -41 42 -47 0 -7 12 -13 27 -13 14 0 35 -7 45 -17 38 -34
16 0 -29 46 -27 26 -67 69 -91 94 l-43 47 25 25 c14 14 23 31 20 38 -3 8 2 20
11 27 10 9 15 9 15 1 0 -6 10 -16 23 -21 l22 -9 -23 0 c-25 -1 -26 -25 -1 -27
43 -3 49 -5 49 -16 1 -22 36 -57 64 -64 17 -4 26 -13 26 -25 0 -10 5 -20 10
-20 6 -1 16 -2 23 -3 6 -1 15 2 18 7 10 13 69 -26 75 -50 4 -13 14 -23 24 -23
10 0 25 -11 34 -25 17 -26 36 -26 36 1 0 8 -25 40 -55 70 -30 31 -55 60 -55
65 0 18 23 8 53 -23 27 -28 32 -30 35 -15 2 10 -2 26 -10 35 -20 25 -38 60
-38 73 0 7 -12 27 -26 46 -19 26 -23 37 -15 47 8 10 7 17 -5 27 -15 12 -16 11
-10 -9 5 -13 3 -22 -3 -22 -6 0 -11 6 -11 14 0 8 -16 31 -35 52 -19 22 -35 45
-35 52 0 6 -7 12 -15 12 -8 0 -17 11 -21 25 -3 14 -11 25 -18 25 -6 1 -50 38
-98 84 -48 46 -126 110 -173 142 -93 63 -98 76 -49 121 13 12 24 26 24 30 0 5
12 22 28 39 15 17 47 57 72 90 24 32 89 103 142 156 54 54 98 100 98 103 0 2
24 31 54 62 68 74 168 188 226 259 25 31 54 60 63 66 19 10 21 9 185 -78 35
-19 71 -34 80 -34 9 0 35 -9 57 -19 70 -34 213 -91 229 -91 8 0 41 -13 73 -29
158 -80 303 -143 373 -162 57 -16 50 -14 83 -27 16 -7 31 -12 35 -12 4 -1 17
-9 30 -20 21 -17 23 -27 22 -87 -3 -92 8 -148 33 -170 20 -18 20 -18 13 12 -6
29 -6 29 9 10 10 -13 14 -29 10 -45 -27 -110 -43 -295 -26 -302 4 -1 11 -63
14 -137 5 -115 4 -131 -8 -115 -12 17 -13 8 -10 -66 2 -70 6 -85 21 -90 13 -5
14 -9 5 -14 -6 -4 -11 -20 -10 -34 4 -47 -1 -73 -11 -67 -5 3 -10 1 -10 -4 0
-6 7 -11 15 -11 8 0 19 -17 25 -40 10 -37 9 -43 -12 -61 l-23 -20 28 4 c27 4
36 -6 17 -18 -13 -8 -13 -35 1 -35 25 0 38 31 44 105 6 77 6 77 -17 72 -21 -6
-23 -3 -23 34 -1 34 2 38 17 33 22 -7 48 12 48 34 0 8 -8 24 -17 35 -18 19
-17 19 17 12 19 -4 50 -18 68 -32 23 -17 58 -28 125 -39 50 -8 100 -19 110
-25 10 -5 22 -7 27 -4 5 3 13 -2 18 -12 8 -14 23 -17 86 -16 61 1 80 -2 98
-17 19 -16 20 -19 6 -20 -9 0 -20 5 -23 10 -11 17 -37 11 -33 -7 2 -11 16 -20
38 -24 73 -15 95 -20 100 -27 21 -28 101 -48 85 -21 -4 5 6 14 21 19 l27 11
-24 16 c-13 9 -26 19 -29 22 -11 13 -34 11 -56 -4 -22 -14 -74 -21 -74 -10 0
3 7 22 15 42 9 20 12 39 7 42 -25 18 -49 69 -45 99 3 27 1 32 -16 32 -23 0
-36 -16 -21 -25 13 -8 13 -45 0 -45 -5 0 -10 -10 -10 -21 0 -21 -1 -21 -27 -4
-39 24 -52 43 -46 65 3 11 1 20 -5 20 -6 0 -21 18 -33 40 -14 24 -30 40 -41
40 -19 0 -24 -15 -8 -25 19 -12 11 -33 -11 -28 -11 3 -18 11 -15 18 3 8 -2 16
-9 19 -8 3 -12 12 -9 20 4 11 0 13 -14 9 -12 -3 -27 3 -38 14 -19 20 -84 53
-102 53 -29 0 -35 33 -33 167 2 103 6 142 18 159 10 16 13 35 9 58 -4 21 -2
36 4 38 11 3 15 78 7 148 -2 19 -5 42 -6 50 -1 13 -2 13 -11 0 -8 -13 -10 -13
-10 2 0 9 5 20 10 23 6 4 8 10 6 14 -3 4 -6 25 -8 47 -1 21 -10 58 -20 81 -14
32 -18 58 -14 103 4 52 2 62 -16 74 -12 9 -25 13 -30 10 -4 -3 -8 0 -8 5 0 6
-8 11 -18 11 -10 0 -22 3 -26 8 -4 4 -11 7 -14 8 -18 2 -49 20 -71 40 -13 12
-44 27 -69 34 -24 6 -66 22 -93 35 -27 14 -55 25 -63 25 -14 0 -160 73 -181
90 -6 5 -38 16 -70 25 -32 8 -63 19 -69 25 -5 5 -20 10 -32 10 -12 0 -33 9
-47 20 -14 11 -33 20 -43 20 -9 0 -25 6 -33 13 -9 8 -36 19 -61 26 -25 7 -78
33 -118 57 -40 25 -98 54 -130 65 -31 11 -70 26 -87 34 -90 39 -108 45 -138
44 -18 -1 -45 -8 -60 -16z m1278 -963 c3 -5 -1 -10 -9 -10 -9 0 -16 5 -16 10
0 6 4 10 9 10 6 0 13 -4 16 -10z m235 -5 c0 -8 -4 -15 -10 -15 -5 0 -7 7 -4
15 4 8 8 15 10 15 2 0 4 -7 4 -15z m-2370 -414 c0 -6 -4 -13 -10 -16 -5 -3
-10 1 -10 9 0 9 5 16 10 16 6 0 10 -4 10 -9z m117 -87 c-3 -3 -12 -4 -19 -1
-8 3 -5 6 6 6 11 1 17 -2 13 -5z m153 -83 c0 -4 -11 -6 -25 -3 -14 2 -25 6
-25 8 0 2 11 4 25 4 14 0 25 -4 25 -9z m27 -68 c7 -26 6 -53 -2 -61 -7 -7 -43
18 -49 33 -5 14 20 52 36 54 4 1 11 -11 15 -26z m43 -33 c0 -5 -2 -10 -4 -10
-3 0 -8 5 -11 10 -3 6 -1 10 4 10 6 0 11 -4 11 -10z m-3 -55 c0 -8 -4 -12 -9
-9 -5 3 -6 10 -3 15 9 13 12 11 12 -6z m1847 -32 c4 -9 2 -21 -4 -27 -7 -7
-10 -7 -10 1 0 6 -3 18 -6 27 -3 9 -2 16 4 16 5 0 13 -8 16 -17z m-1619 -13
c3 -5 1 -10 -4 -10 -6 0 -11 5 -11 10 0 6 2 10 4 10 3 0 8 -4 11 -10z m2132
-66 c-3 -3 -12 -4 -19 -1 -8 3 -5 6 6 6 11 1 17 -2 13 -5z m-1017 -464 c0 -5
-4 -10 -10 -10 -5 0 -10 5 -10 10 0 6 5 10 10 10 6 0 10 -4 10 -10z m-1735
-259 c3 -5 2 -12 -3 -15 -5 -3 -9 1 -9 9 0 17 3 19 12 6z m32 -73 c-3 -7 -5
-2 -5 12 0 14 2 19 5 13 2 -7 2 -19 0 -25z m61 -23 c-3 -3 -9 2 -12 12 -6 14
-5 15 5 6 7 -7 10 -15 7 -18z"/>
<path d="M881 2798 c-13 -33 -2 -43 21 -20 11 11 17 25 14 31 -11 18 -26 13
-35 -11z"/>
<path d="M1096 2778 c-19 -27 -21 -58 -3 -58 7 0 18 18 24 40 11 44 2 52 -21
18z"/>
<path d="M3550 2450 c0 -28 19 -44 21 -17 0 6 2 20 4 30 2 9 -3 17 -11 17 -9
0 -14 -11 -14 -30z"/>
<path d="M1465 2440 c3 -5 11 -10 16 -10 6 0 7 5 4 10 -3 6 -11 10 -16 10 -6
0 -7 -4 -4 -10z"/>
<path d="M4336 2211 c-15 -16 -15 -19 -1 -31 8 -7 15 -19 15 -26 0 -18 14 -18
30 1 13 16 6 47 -14 64 -10 8 -17 6 -30 -8z"/>
<path d="M3720 2121 c0 -11 5 -32 11 -48 6 -15 11 -61 11 -100 1 -54 5 -73 14
-73 16 0 18 156 3 166 -6 3 -8 13 -4 21 8 22 -4 53 -21 53 -8 0 -14 -9 -14
-19z"/>
<path d="M2260 2070 c0 -5 7 -10 15 -10 8 0 15 5 15 10 0 6 -7 10 -15 10 -8 0
-15 -4 -15 -10z"/>
<path d="M2060 2010 c0 -5 4 -10 9 -10 6 0 13 5 16 10 3 6 -1 10 -9 10 -9 0
-16 -4 -16 -10z"/>
<path d="M4463 1984 c-5 -13 -8 -13 -15 -2 -8 10 -9 10 -6 -1 7 -23 25 -24 31
-1 6 24 -1 27 -10 4z"/>
<path d="M2060 1945 c0 -18 5 -25 20 -25 24 0 28 35 4 44 -23 9 -24 8 -24 -19z"/>
<path d="M1106 1773 c-7 -18 12 -46 25 -37 14 8 10 41 -5 47 -8 3 -17 -1 -20
-10z"/>
<path d="M1156 1712 c-2 -4 -1 -14 5 -22 7 -12 9 -10 9 8 0 23 -5 28 -14 14z"/>
<path d="M2410 1654 c0 -8 5 -14 10 -14 6 0 13 0 18 0 15 0 6 23 -10 26 -10 1
-18 -4 -18 -12z"/>
<path d="M1590 1410 c0 -5 4 -10 9 -10 6 0 13 5 16 10 3 6 -1 10 -9 10 -9 0
-16 -4 -16 -10z"/>
<path d="M1667 1394 c5 -13 2 -15 -15 -10 -29 10 -35 -8 -10 -30 15 -14 22
-16 25 -6 7 20 22 14 16 -7 -10 -39 25 -36 40 4 3 6 7 7 11 4 8 -8 -23 -69
-35 -69 -5 0 -9 -10 -9 -21 0 -19 2 -20 17 -8 15 13 16 11 11 -13 -7 -37 12
-51 56 -43 28 6 37 4 42 -9 3 -9 13 -16 21 -16 11 0 13 5 8 18 -4 9 -8 24 -8
32 -1 26 -24 40 -66 40 -22 0 -43 5 -46 10 -4 6 5 10 20 10 16 0 28 7 31 18 3
9 10 25 15 35 8 15 6 20 -10 24 -12 3 -21 8 -21 12 0 11 -57 41 -79 41 -15 0
-19 -4 -14 -16z"/>
<path d="M1590 1305 c0 -27 26 -35 47 -14 17 17 4 39 -23 39 -19 0 -24 -5 -24
-25z"/>
<path d="M1545 1240 c-3 -5 -4 -14 0 -19 7 -12 -14 -25 -39 -26 -34 0 -31 -25
3 -25 17 0 31 -5 31 -11 0 -7 9 -9 24 -5 16 4 26 1 30 -10 4 -11 10 -13 25 -4
29 15 16 43 -16 35 -22 -5 -23 -4 -13 15 6 12 23 26 38 32 25 10 26 11 7 18
-28 12 -83 12 -90 0z"/>
<path d="M1888 1238 c-5 -46 -3 -78 7 -75 5 2 9 11 7 21 -2 10 4 16 18 16 13
0 20 7 20 19 0 27 -48 44 -52 19z"/>
<path d="M2038 1235 c-8 -8 3 -65 13 -65 5 0 9 11 9 25 0 17 6 25 18 26 14 0
14 2 -3 9 -25 11 -30 11 -37 5z"/>
<path d="M2182 1188 c-16 -16 -15 -25 4 -32 8 -3 23 1 31 10 14 13 14 17 2 25
-19 12 -23 11 -37 -3z"/>
<path d="M1965 1160 c-19 -8 -19 -9 2 -9 12 -1 23 -6 25 -13 2 -6 10 -8 17 -4
9 6 9 11 0 22 -13 16 -16 16 -44 4z"/>
</g>
</svg>
