<?xml version="1.0" encoding="UTF-8" standalone="no"?>
<!DOCTYPE svg PUBLIC "-//W3C//DTD SVG 1.1//EN" "http://www.w3.org/Graphics/SVG/1.1/DTD/svg11.dtd">
<svg width="100%" height="100%" viewBox="0 0 2048 512" version="1.1" xmlns="http://www.w3.org/2000/svg" xmlns:xlink="http://www.w3.org/1999/xlink" xml:space="preserve" xmlns:serif="http://www.serif.com/" style="fill-rule:evenodd;clip-rule:evenodd;stroke-linejoin:round;stroke-miterlimit:2;">
    <g transform="matrix(14.6233,0,0,14.6233,-3887.59,-3911.12)">
        <g transform="matrix(12.3091,0,0,12.3091,290.694,296.237)">
            <path d="M0.246,0.01C0.319,0.01 0.375,-0.027 0.407,-0.086L0.409,-0.086L0.409,-0L0.494,-0L0.494,-0.705L0.409,-0.705L0.409,-0.423L0.407,-0.423C0.375,-0.481 0.316,-0.518 0.245,-0.518C0.117,-0.518 0.03,-0.415 0.03,-0.254L0.03,-0.254C0.03,-0.094 0.116,0.01 0.246,0.01ZM0.263,-0.065C0.173,-0.065 0.117,-0.137 0.117,-0.254L0.117,-0.254C0.117,-0.37 0.173,-0.442 0.263,-0.442C0.348,-0.442 0.41,-0.368 0.41,-0.254L0.41,-0.254C0.41,-0.14 0.349,-0.065 0.263,-0.065Z" style="fill:white;fill-rule:nonzero;"/>
        </g>
        <g transform="matrix(12.3091,0,0,12.3091,297.51,296.237)">
            <path d="M0.055,-0L0.14,-0L0.14,-0.299C0.14,-0.385 0.192,-0.442 0.272,-0.442C0.351,-0.442 0.389,-0.397 0.389,-0.314L0.389,-0L0.474,-0L0.474,-0.33C0.474,-0.445 0.41,-0.518 0.298,-0.518C0.221,-0.518 0.169,-0.483 0.142,-0.436L0.14,-0.436L0.14,-0.508L0.055,-0.508L0.055,-0Z" style="fill:white;fill-rule:nonzero;"/>
        </g>
        <g transform="matrix(12.3091,0,0,12.3091,303.995,296.237)">
            <path d="M0.235,0.01C0.349,0.01 0.433,-0.053 0.433,-0.142L0.433,-0.142C0.433,-0.214 0.396,-0.255 0.293,-0.28L0.212,-0.299C0.156,-0.313 0.133,-0.337 0.133,-0.372L0.133,-0.372C0.133,-0.417 0.171,-0.447 0.233,-0.447C0.296,-0.447 0.333,-0.414 0.34,-0.365L0.341,-0.361L0.422,-0.361L0.421,-0.368C0.415,-0.453 0.344,-0.518 0.233,-0.518C0.123,-0.518 0.046,-0.456 0.046,-0.368L0.046,-0.368C0.046,-0.294 0.093,-0.25 0.188,-0.227L0.269,-0.208C0.327,-0.193 0.346,-0.173 0.346,-0.136L0.346,-0.136C0.346,-0.09 0.305,-0.061 0.236,-0.061C0.167,-0.061 0.129,-0.091 0.119,-0.142L0.118,-0.146L0.033,-0.146L0.033,-0.142C0.043,-0.051 0.116,0.01 0.235,0.01Z" style="fill:white;fill-rule:nonzero;"/>
        </g>
        <g transform="matrix(12.3091,0,0,12.3091,309.723,296.237)">
            <path d="M0.107,0.007C0.139,0.007 0.163,-0.018 0.163,-0.049C0.163,-0.08 0.139,-0.104 0.107,-0.104C0.076,-0.104 0.052,-0.08 0.052,-0.049C0.052,-0.018 0.076,0.007 0.107,0.007Z" style="fill:white;fill-rule:nonzero;"/>
        </g>
        <g transform="matrix(12.3091,0,0,12.3091,312.368,296.237)">
            <path d="M0.055,-0L0.14,-0L0.14,-0.299C0.14,-0.385 0.192,-0.442 0.272,-0.442C0.351,-0.442 0.389,-0.397 0.389,-0.314L0.389,-0L0.474,-0L0.474,-0.33C0.474,-0.445 0.41,-0.518 0.298,-0.518C0.221,-0.518 0.169,-0.483 0.142,-0.436L0.14,-0.436L0.14,-0.508L0.055,-0.508L0.055,-0Z" style="fill:white;fill-rule:nonzero;"/>
        </g>
        <g transform="matrix(12.3091,0,0,12.3091,318.853,296.237)">
            <path d="M0.266,0.01C0.406,0.01 0.5,-0.092 0.5,-0.254L0.5,-0.255C0.5,-0.417 0.405,-0.518 0.265,-0.518C0.125,-0.518 0.03,-0.417 0.03,-0.255L0.03,-0.254C0.03,-0.092 0.125,0.01 0.266,0.01ZM0.266,-0.065C0.176,-0.065 0.117,-0.134 0.117,-0.254L0.117,-0.255C0.117,-0.374 0.177,-0.442 0.265,-0.442C0.355,-0.442 0.414,-0.374 0.414,-0.255L0.414,-0.254C0.414,-0.135 0.355,-0.065 0.266,-0.065Z" style="fill:white;fill-rule:nonzero;"/>
        </g>
        <g transform="matrix(12.3091,0,0,12.3091,325.386,296.237)">
            <path d="M0.22,0.01C0.237,0.01 0.255,0.008 0.266,0.006L0.266,-0.063C0.258,-0.062 0.249,-0.061 0.238,-0.061C0.193,-0.061 0.169,-0.076 0.169,-0.13L0.169,-0.438L0.266,-0.438L0.266,-0.508L0.169,-0.508L0.169,-0.645L0.081,-0.645L0.081,-0.508L0.007,-0.508L0.007,-0.438L0.081,-0.438L0.081,-0.129C0.081,-0.032 0.127,0.01 0.22,0.01Z" style="fill:white;fill-rule:nonzero;"/>
        </g>
        <g transform="matrix(12.3091,0,0,12.3091,329.094,296.237)">
            <path d="M0.102,-0.594C0.132,-0.594 0.155,-0.618 0.155,-0.647C0.155,-0.677 0.132,-0.7 0.102,-0.7C0.073,-0.7 0.049,-0.677 0.049,-0.647C0.049,-0.618 0.073,-0.594 0.102,-0.594ZM-0.013,0.171C0.096,0.171 0.145,0.125 0.145,0.021L0.145,-0.508L0.06,-0.508L0.06,0.022C0.06,0.079 0.04,0.096 -0.016,0.096L-0.029,0.096L-0.029,0.171C-0.023,0.171 -0.018,0.171 -0.013,0.171Z" style="fill:white;fill-rule:nonzero;"/>
        </g>
        <g transform="matrix(12.3091,0,0,12.3091,331.619,296.237)">
            <path d="M0.204,0.01C0.271,0.01 0.333,-0.027 0.362,-0.083L0.364,-0.083L0.364,-0L0.449,-0L0.449,-0.351C0.449,-0.453 0.374,-0.518 0.254,-0.518C0.134,-0.518 0.062,-0.45 0.054,-0.367L0.054,-0.361L0.136,-0.361L0.137,-0.366C0.146,-0.411 0.188,-0.442 0.253,-0.442C0.324,-0.442 0.364,-0.405 0.364,-0.343L0.364,-0.3L0.219,-0.292C0.102,-0.285 0.035,-0.231 0.035,-0.145L0.035,-0.144C0.035,-0.051 0.103,0.01 0.204,0.01ZM0.122,-0.144L0.122,-0.145C0.122,-0.192 0.161,-0.222 0.229,-0.226L0.364,-0.234L0.364,-0.193C0.364,-0.119 0.303,-0.064 0.223,-0.064C0.162,-0.064 0.122,-0.095 0.122,-0.144Z" style="fill:white;fill-rule:nonzero;"/>
        </g>
        <g transform="matrix(12.3091,0,0,12.3091,337.797,296.237)">
            <path d="M0.062,-0L0.147,-0L0.147,-0.191L0.194,-0.237L0.383,-0L0.481,-0L0.254,-0.289L0.475,-0.508L0.372,-0.508L0.149,-0.284L0.147,-0.284L0.147,-0.705L0.062,-0.705L0.062,-0Z" style="fill:white;fill-rule:nonzero;"/>
        </g>
        <g transform="matrix(12.3091,0,0,12.3091,343.471,296.237)">
            <path d="M0.266,0.01C0.406,0.01 0.5,-0.092 0.5,-0.254L0.5,-0.255C0.5,-0.417 0.405,-0.518 0.265,-0.518C0.125,-0.518 0.03,-0.417 0.03,-0.255L0.03,-0.254C0.03,-0.092 0.125,0.01 0.266,0.01ZM0.266,-0.065C0.176,-0.065 0.117,-0.134 0.117,-0.254L0.117,-0.255C0.117,-0.374 0.177,-0.442 0.265,-0.442C0.355,-0.442 0.414,-0.374 0.414,-0.255L0.414,-0.254C0.414,-0.135 0.355,-0.065 0.266,-0.065Z" style="fill:white;fill-rule:nonzero;"/>
        </g>
        <g transform="matrix(12.3091,0,0,12.3091,350.004,296.237)">
            <path d="M0.308,0.01C0.438,0.01 0.523,-0.094 0.523,-0.254L0.523,-0.254C0.523,-0.415 0.437,-0.518 0.309,-0.518C0.237,-0.518 0.178,-0.481 0.146,-0.423L0.145,-0.423L0.145,-0.705L0.06,-0.705L0.06,-0L0.145,-0L0.145,-0.086L0.146,-0.086C0.178,-0.027 0.235,0.01 0.308,0.01ZM0.291,-0.065C0.205,-0.065 0.144,-0.14 0.144,-0.254L0.144,-0.254C0.144,-0.368 0.206,-0.442 0.291,-0.442C0.381,-0.442 0.437,-0.37 0.437,-0.254L0.437,-0.254C0.437,-0.137 0.381,-0.065 0.291,-0.065Z" style="fill:white;fill-rule:nonzero;"/>
        </g>
        <g transform="matrix(12.3091,0,0,12.3091,356.459,296.237)">
            <path d="M0.107,0.007C0.139,0.007 0.163,-0.018 0.163,-0.049C0.163,-0.08 0.139,-0.104 0.107,-0.104C0.076,-0.104 0.052,-0.08 0.052,-0.049C0.052,-0.018 0.076,0.007 0.107,0.007Z" style="fill:white;fill-rule:nonzero;"/>
        </g>
        <g transform="matrix(12.3091,0,0,12.3091,358.743,296.237)">
            <path d="M0.266,0.01C0.38,0.01 0.464,-0.065 0.478,-0.162L0.478,-0.165L0.395,-0.165L0.394,-0.161C0.379,-0.104 0.335,-0.065 0.266,-0.065C0.178,-0.065 0.117,-0.135 0.117,-0.253L0.117,-0.254C0.117,-0.369 0.176,-0.442 0.265,-0.442C0.339,-0.442 0.38,-0.397 0.393,-0.347L0.394,-0.343L0.477,-0.343L0.477,-0.347C0.466,-0.434 0.391,-0.518 0.265,-0.518C0.124,-0.518 0.03,-0.415 0.03,-0.255L0.03,-0.254C0.03,-0.093 0.122,0.01 0.266,0.01Z" style="fill:white;fill-rule:nonzero;"/>
        </g>
        <g transform="matrix(12.3091,0,0,12.3091,364.91,296.237)">
            <path d="M0.266,0.01C0.406,0.01 0.5,-0.092 0.5,-0.254L0.5,-0.255C0.5,-0.417 0.405,-0.518 0.265,-0.518C0.125,-0.518 0.03,-0.417 0.03,-0.255L0.03,-0.254C0.03,-0.092 0.125,0.01 0.266,0.01ZM0.266,-0.065C0.176,-0.065 0.117,-0.134 0.117,-0.254L0.117,-0.255C0.117,-0.374 0.177,-0.442 0.265,-0.442C0.355,-0.442 0.414,-0.374 0.414,-0.255L0.414,-0.254C0.414,-0.135 0.355,-0.065 0.266,-0.065Z" style="fill:white;fill-rule:nonzero;"/>
        </g>
        <g transform="matrix(12.3091,0,0,12.3091,371.443,296.237)">
            <path d="M0.055,-0L0.14,-0L0.14,-0.318C0.14,-0.389 0.189,-0.442 0.256,-0.442C0.319,-0.442 0.36,-0.402 0.36,-0.34L0.36,-0L0.445,-0L0.445,-0.323C0.445,-0.392 0.493,-0.442 0.56,-0.442C0.627,-0.442 0.666,-0.401 0.666,-0.331L0.666,-0L0.75,-0L0.75,-0.351C0.75,-0.452 0.686,-0.518 0.585,-0.518C0.514,-0.518 0.454,-0.481 0.426,-0.42L0.424,-0.42C0.402,-0.482 0.351,-0.518 0.281,-0.518C0.216,-0.518 0.165,-0.484 0.142,-0.434L0.14,-0.434L0.14,-0.508L0.055,-0.508L0.055,-0Z" style="fill:white;fill-rule:nonzero;"/>
        </g>
    </g>
    <g id="Key" transform="matrix(5.35779,0,0,5.35779,852.567,-19.5858)">
        <path d="M62,30L62,34C62,35.097 61.097,36 60,36L58,36L58,43C58,44.097 57.097,45 56,45L52,45C50.903,45 50,44.097 50,43L50,36L44,36L44,39C44,40.646 42.646,42 41,42L39,42C37.354,42 36,40.646 36,39L36,36L31.46,36C29.667,42.48 23.726,47 17.003,47C8.774,47 2.003,40.229 2.003,32C2.003,23.771 8.774,17 17.003,17C23.726,17 29.667,21.52 31.46,28L60,28C61.097,28 62,28.903 62,30Z" style="fill:rgb(139,196,255);fill-rule:nonzero;"/>
        <path d="M17,49C16.998,49 16.996,49 16.994,49C7.668,49 -0.006,41.326 -0.006,32C-0.006,22.674 7.668,15 16.994,15C24.052,15 30.409,19.396 32.9,26L60,26C62.194,26 64,27.806 64,30L64,34C64,36.194 62.194,38 60,38L60,43C60,45.194 58.194,47 56,47L52,47C49.806,47 48,45.194 48,43L48,38L46,38L46,39C46,41.743 43.743,44 41,44L39,44C36.257,44 34,41.743 34,39L34,38L32.91,38C30.445,44.626 24.069,49.034 17,49ZM17,19C9.869,19.001 4.002,24.869 4.002,32C4.002,39.132 9.87,45 17.002,45C22.827,45 27.975,41.084 29.53,35.47C29.768,34.604 30.562,33.999 31.46,34L36,34C37.097,34 38,34.903 38,36L38,39C38,39.549 38.451,40 39,40L41,40C41.549,40 42,39.549 42,39L42,36C42,34.903 42.903,34 44,34L50,34C51.097,34 52,34.903 52,36L52,43L56,43L56,36C56,34.903 56.903,34 58,34L60,34L60,30L31.46,30C30.562,30.001 29.768,29.396 29.53,28.53C27.975,22.915 22.826,18.999 17,19Z" style="fill:rgb(46,88,255);fill-rule:nonzero;"/>
        <circle cx="10" cy="32" r="3" style="fill:rgb(209,231,255);"/>
    </g>
</svg>
