<?xml version="1.0" encoding="UTF-8" standalone="no"?>
<!DOCTYPE svg PUBLIC "-//W3C//DTD SVG 1.1//EN" "http://www.w3.org/Graphics/SVG/1.1/DTD/svg11.dtd">
<svg width="100%" height="100%" viewBox="0 0 2048 512" version="1.1" xmlns="http://www.w3.org/2000/svg" xmlns:xlink="http://www.w3.org/1999/xlink" xml:space="preserve" xmlns:serif="http://www.serif.com/" style="fill-rule:evenodd;clip-rule:evenodd;stroke-linejoin:round;stroke-miterlimit:2;">
    <g id="GPU" transform="matrix(1,0,0,1,35,0)">
        <rect x="121" y="391" width="120" height="90" style="fill:rgb(253,191,0);"/>
        <path d="M512,481L271,481L271,391L482,391L512,421L512,481Z" style="fill:rgb(253,191,0);fill-rule:nonzero;"/>
        <path d="M512,91L512,421L76,421L76,181L250.301,91L512,91Z" style="fill:rgb(87,217,173);fill-rule:nonzero;"/>
        <rect x="76" y="256" width="436" height="165" style="fill:rgb(38,191,166);"/>
        <path d="M346,151C288.102,151 241,198.102 241,256C241,313.898 288.102,361 346,361C403.898,361 451,313.898 451,256C451,198.102 403.898,151 346,151Z" style="fill:rgb(230,255,255);fill-rule:nonzero;"/>
        <path d="M451,256C451,313.898 403.898,361 346,361C288.102,361 241,313.898 241,256L451,256Z" style="fill:rgb(217,242,255);fill-rule:nonzero;"/>
        <path d="M346,181C304.602,181 271,214.602 271,256C271,297.398 304.602,331 346,331C387.398,331 421,297.398 421,256C421,214.602 387.398,181 346,181Z" style="fill:rgb(74,105,111);fill-rule:nonzero;"/>
        <path d="M421,256C421,297.398 387.398,331 346,331C304.602,331 271,297.398 271,256L421,256Z" style="fill:rgb(56,73,73);fill-rule:nonzero;"/>
        <path d="M76,91L76,181L205.273,181L250.277,91L76,91Z" style="fill:rgb(38,191,166);fill-rule:nonzero;"/>
        <rect x="121" y="211" width="90" height="30" style="fill:rgb(74,105,111);"/>
        <rect x="121" y="331" width="90" height="30" style="fill:rgb(56,73,73);"/>
        <rect x="121" y="271" width="30" height="30" style="fill:rgb(56,73,73);"/>
        <rect x="181" y="271" width="30" height="30" style="fill:rgb(56,73,73);"/>
        <path d="M329.77,354.406L311.781,330.414L323.734,321.449C335.059,312.953 341.344,299.445 340.551,285.297L370.492,283.629C371.855,307.813 361.102,330.926 341.723,345.441L329.77,354.406Z" style="fill:rgb(217,242,255);fill-rule:nonzero;"/>
        <path d="M319,235.902L315.398,256L313.898,265.301C305.199,263.801 296.801,260.5 289.301,256C277.598,249.102 268,238.598 261.699,226.301L256.301,214.898L283,201.699L288.699,212.801C294.699,224.801 306.098,233.5 319,235.902Z" style="fill:rgb(230,255,255);fill-rule:nonzero;"/>
        <path d="M316.688,235.125C309.129,213.797 312.102,189.805 324.656,170.965L333.52,157.68L358.48,174.32L349.617,187.605C342.277,198.621 340.551,212.641 344.961,225.105L316.688,235.125Z" style="fill:rgb(230,255,255);fill-rule:nonzero;"/>
        <path d="M423.699,318.699L394,322.301L391.602,302.199C389.801,288.402 381.398,276.102 368.801,269.801L376,256L382.598,243.102C389.199,246.398 395.199,250.898 400.301,256C412,267.398 419.5,282.102 421.301,298.598L423.699,318.699Z" style="fill:rgb(230,255,255);fill-rule:nonzero;"/>
        <path d="M284.785,307.695C283.246,307.695 281.691,307.648 280.156,307.547L262.27,306.391L264.203,276.449L282.09,277.605C293.895,278.309 305.484,274.137 314.008,265.961L334.75,287.641C321.305,300.516 303.301,307.695 284.785,307.695Z" style="fill:rgb(217,242,255);fill-rule:nonzero;"/>
        <path d="M367.121,239.711L347.727,216.801C368.719,199.02 397.445,194.695 422.742,205.535L436.469,211.383L424.691,238.98L410.953,233.121C396.172,226.82 379.383,229.313 367.121,239.711Z" style="fill:rgb(230,255,255);fill-rule:nonzero;"/>
        <path d="M91,31L91,481L61,481L61,61L0,61L0,31L91,31Z" style="fill:rgb(217,242,255);fill-rule:nonzero;"/>
        <rect x="61" y="256" width="30" height="225" style="fill:rgb(204,221,255);"/>
        <g>
            <path d="M289.301,256L315.398,256L313.898,265.301C305.199,263.801 296.801,260.5 289.301,256Z" style="fill:rgb(217,242,255);fill-rule:nonzero;"/>
            <path d="M423.699,318.699L394,322.301L391.602,302.199C389.801,288.402 381.398,276.102 368.801,269.801L376,256L400.301,256C412,267.398 419.5,282.102 421.301,298.598L423.699,318.699Z" style="fill:rgb(217,242,255);fill-rule:nonzero;"/>
            <path d="M346,211C321.098,211 301,231.098 301,256C301,280.902 321.098,301 346,301C370.902,301 391,280.902 391,256C391,231.098 370.902,211 346,211Z" style="fill:rgb(217,242,255);fill-rule:nonzero;"/>
            <path d="M391,256C391,280.902 370.902,301 346,301C321.098,301 301,280.902 301,256L391,256Z" style="fill:rgb(217,242,255);fill-rule:nonzero;"/>
        </g>
    </g>
    <g transform="matrix(1.26328,0,0,1.26328,-317.969,-76.6118)">
        <g>
            <g transform="matrix(1,0,0,1,712.776,334.011)">
                <g transform="matrix(178.837,0,0,178.837,0,0)">
                    <path d="M0.139,-0C0.128,-0 0.119,-0.004 0.112,-0.012C0.104,-0.019 0.1,-0.028 0.1,-0.039L0.1,-0.742C0.1,-0.753 0.104,-0.763 0.112,-0.77C0.119,-0.777 0.128,-0.781 0.139,-0.781L0.608,-0.781C0.619,-0.781 0.629,-0.777 0.636,-0.77C0.643,-0.763 0.647,-0.754 0.647,-0.743C0.647,-0.732 0.643,-0.724 0.636,-0.717C0.629,-0.71 0.619,-0.706 0.608,-0.706L0.178,-0.706L0.178,-0.43L0.491,-0.43C0.502,-0.43 0.512,-0.426 0.519,-0.419C0.526,-0.412 0.53,-0.403 0.53,-0.392C0.53,-0.381 0.526,-0.372 0.519,-0.365C0.511,-0.358 0.502,-0.354 0.491,-0.354L0.178,-0.354L0.178,-0.075L0.608,-0.075C0.619,-0.075 0.629,-0.071 0.636,-0.065C0.643,-0.058 0.647,-0.049 0.647,-0.038C0.647,-0.027 0.643,-0.018 0.636,-0.011C0.629,-0.004 0.619,-0 0.608,-0L0.139,-0Z" style="fill:white;fill-rule:nonzero;"/>
                </g>
                <g transform="matrix(178.837,0,0,178.837,123.755,0)">
                    <path d="M0.349,-0.553C0.396,-0.553 0.439,-0.543 0.476,-0.523C0.514,-0.503 0.544,-0.474 0.565,-0.436C0.586,-0.397 0.597,-0.351 0.597,-0.298L0.597,-0.038C0.597,-0.027 0.593,-0.018 0.586,-0.011C0.579,-0.004 0.57,-0 0.559,-0C0.548,-0 0.538,-0.004 0.531,-0.011C0.524,-0.018 0.52,-0.027 0.52,-0.038L0.52,-0.298C0.52,-0.357 0.503,-0.403 0.47,-0.434C0.438,-0.465 0.394,-0.48 0.341,-0.48C0.308,-0.48 0.279,-0.474 0.253,-0.461C0.226,-0.448 0.205,-0.431 0.19,-0.408C0.175,-0.386 0.167,-0.361 0.167,-0.334L0.167,-0.038C0.167,-0.027 0.164,-0.018 0.157,-0.011C0.15,-0.004 0.14,-0 0.129,-0C0.118,-0 0.108,-0.004 0.101,-0.011C0.094,-0.018 0.09,-0.027 0.09,-0.038L0.09,-0.508C0.09,-0.519 0.094,-0.529 0.101,-0.536C0.108,-0.543 0.118,-0.547 0.129,-0.547C0.14,-0.547 0.15,-0.543 0.157,-0.536C0.164,-0.529 0.167,-0.519 0.167,-0.508L0.167,-0.474C0.189,-0.499 0.216,-0.518 0.247,-0.532C0.278,-0.546 0.312,-0.553 0.349,-0.553Z" style="fill:white;fill-rule:nonzero;"/>
                </g>
            </g>
            <g transform="matrix(1,0,0,1,953.312,334.011)">
                <g transform="matrix(178.837,0,0,178.837,0,0)">
                    <path d="M0.516,-0.544C0.53,-0.537 0.537,-0.527 0.537,-0.512C0.537,-0.508 0.536,-0.503 0.534,-0.498L0.315,-0.026C0.306,-0.009 0.294,-0 0.277,-0C0.261,-0 0.249,-0.009 0.241,-0.026L0.019,-0.497C0.017,-0.501 0.016,-0.506 0.016,-0.511C0.016,-0.525 0.023,-0.536 0.038,-0.543C0.043,-0.546 0.048,-0.547 0.054,-0.547C0.061,-0.547 0.067,-0.545 0.073,-0.542C0.078,-0.539 0.082,-0.534 0.085,-0.527L0.277,-0.111L0.467,-0.527C0.47,-0.534 0.474,-0.539 0.48,-0.543C0.486,-0.546 0.493,-0.548 0.5,-0.548C0.506,-0.548 0.511,-0.547 0.516,-0.544Z" style="fill:white;fill-rule:nonzero;"/>
                </g>
                <g transform="matrix(178.837,0,0,178.837,98.8969,0)">
                    <path d="M0.518,-0.544C0.533,-0.538 0.541,-0.528 0.541,-0.515C0.541,-0.509 0.54,-0.503 0.537,-0.497L0.213,0.215C0.207,0.23 0.197,0.238 0.184,0.238C0.177,0.238 0.171,0.237 0.166,0.234C0.151,0.228 0.143,0.218 0.143,0.204C0.143,0.198 0.144,0.192 0.147,0.186L0.246,-0.033L0.246,-0.034L0.023,-0.496C0.02,-0.501 0.019,-0.507 0.019,-0.514C0.019,-0.528 0.026,-0.538 0.041,-0.544C0.046,-0.547 0.052,-0.548 0.059,-0.548C0.073,-0.548 0.083,-0.541 0.089,-0.527L0.284,-0.116L0.47,-0.526C0.477,-0.541 0.487,-0.548 0.5,-0.548C0.506,-0.548 0.512,-0.547 0.518,-0.544Z" style="fill:white;fill-rule:nonzero;"/>
                </g>
                <g transform="matrix(178.837,0,0,178.837,196.9,0)">
                    <path d="M0.411,0.016C0.351,0.016 0.297,0.004 0.25,-0.019C0.203,-0.042 0.166,-0.075 0.14,-0.117C0.113,-0.158 0.1,-0.205 0.1,-0.258L0.1,-0.742C0.1,-0.753 0.104,-0.763 0.111,-0.77C0.118,-0.777 0.128,-0.781 0.139,-0.781C0.15,-0.781 0.16,-0.777 0.167,-0.77C0.174,-0.763 0.178,-0.753 0.178,-0.742L0.178,-0.258C0.178,-0.219 0.188,-0.185 0.207,-0.155C0.227,-0.124 0.255,-0.101 0.29,-0.084C0.325,-0.067 0.366,-0.058 0.411,-0.058C0.456,-0.058 0.495,-0.067 0.53,-0.084C0.565,-0.101 0.592,-0.124 0.612,-0.155C0.631,-0.185 0.641,-0.219 0.641,-0.258L0.641,-0.742C0.641,-0.753 0.645,-0.763 0.652,-0.77C0.659,-0.777 0.669,-0.781 0.68,-0.781C0.691,-0.781 0.701,-0.777 0.708,-0.77C0.715,-0.763 0.719,-0.753 0.719,-0.742L0.719,-0.258C0.719,-0.205 0.706,-0.158 0.68,-0.117C0.653,-0.075 0.617,-0.042 0.57,-0.019C0.523,0.004 0.47,0.016 0.411,0.016Z" style="fill:white;fill-rule:nonzero;"/>
                </g>
                <g transform="matrix(178.837,0,0,178.837,343.367,0)">
                    <path d="M0.368,-0.552C0.42,-0.552 0.467,-0.54 0.509,-0.516C0.552,-0.491 0.585,-0.458 0.61,-0.415C0.634,-0.372 0.646,-0.325 0.646,-0.273C0.646,-0.221 0.634,-0.174 0.611,-0.132C0.587,-0.089 0.555,-0.056 0.514,-0.032C0.472,-0.007 0.427,0.005 0.376,0.005C0.333,0.005 0.293,-0.004 0.257,-0.023C0.221,-0.041 0.191,-0.066 0.168,-0.098L0.168,0.195C0.168,0.206 0.164,0.216 0.157,0.223C0.15,0.23 0.14,0.234 0.129,0.234C0.118,0.234 0.109,0.23 0.102,0.223C0.095,0.216 0.091,0.206 0.091,0.195L0.091,-0.029C0.09,-0.031 0.09,-0.034 0.09,-0.038L0.09,-0.273C0.09,-0.325 0.102,-0.372 0.127,-0.415C0.151,-0.458 0.184,-0.491 0.227,-0.516C0.269,-0.54 0.316,-0.552 0.368,-0.552ZM0.368,-0.065C0.406,-0.065 0.441,-0.074 0.471,-0.092C0.502,-0.11 0.527,-0.135 0.545,-0.167C0.562,-0.198 0.571,-0.234 0.571,-0.273C0.571,-0.312 0.562,-0.348 0.545,-0.38C0.527,-0.411 0.502,-0.436 0.471,-0.455C0.441,-0.473 0.406,-0.482 0.368,-0.482C0.33,-0.482 0.296,-0.473 0.265,-0.455C0.234,-0.436 0.21,-0.411 0.193,-0.38C0.175,-0.348 0.166,-0.312 0.166,-0.273C0.166,-0.262 0.166,-0.253 0.167,-0.248C0.168,-0.247 0.168,-0.245 0.168,-0.243C0.175,-0.191 0.197,-0.148 0.234,-0.115C0.271,-0.082 0.315,-0.065 0.368,-0.065Z" style="fill:white;fill-rule:nonzero;"/>
                </g>
                <g transform="matrix(178.837,0,0,178.837,469.805,0)">
                    <path d="M0.616,-0.518C0.617,-0.516 0.617,-0.513 0.617,-0.509L0.617,-0.274C0.617,-0.222 0.605,-0.175 0.581,-0.132C0.556,-0.089 0.523,-0.056 0.481,-0.032C0.438,-0.007 0.391,0.005 0.339,0.005C0.287,0.005 0.24,-0.007 0.198,-0.032C0.155,-0.056 0.122,-0.089 0.098,-0.132C0.073,-0.175 0.061,-0.222 0.061,-0.274C0.061,-0.326 0.073,-0.373 0.097,-0.416C0.12,-0.458 0.153,-0.491 0.194,-0.516C0.234,-0.54 0.28,-0.552 0.331,-0.552C0.374,-0.552 0.414,-0.543 0.45,-0.525C0.486,-0.506 0.516,-0.481 0.539,-0.449L0.539,-0.742C0.539,-0.753 0.543,-0.763 0.55,-0.77C0.557,-0.777 0.567,-0.781 0.578,-0.781C0.589,-0.781 0.599,-0.777 0.606,-0.77C0.613,-0.763 0.616,-0.753 0.616,-0.742L0.616,-0.518ZM0.339,-0.065C0.377,-0.065 0.411,-0.074 0.442,-0.093C0.473,-0.111 0.497,-0.136 0.515,-0.168C0.532,-0.199 0.541,-0.235 0.541,-0.274C0.541,-0.285 0.541,-0.294 0.54,-0.299C0.539,-0.3 0.539,-0.302 0.539,-0.304C0.532,-0.356 0.51,-0.399 0.473,-0.432C0.437,-0.465 0.392,-0.482 0.339,-0.482C0.301,-0.482 0.267,-0.473 0.235,-0.455C0.204,-0.437 0.18,-0.412 0.163,-0.381C0.145,-0.349 0.136,-0.313 0.136,-0.274C0.136,-0.235 0.145,-0.199 0.163,-0.168C0.18,-0.136 0.204,-0.111 0.235,-0.093C0.267,-0.074 0.301,-0.065 0.339,-0.065Z" style="fill:white;fill-rule:nonzero;"/>
                </g>
                <g transform="matrix(178.837,0,0,178.837,596.243,0)">
                    <path d="M0.339,-0.552C0.391,-0.552 0.438,-0.54 0.481,-0.516C0.523,-0.491 0.556,-0.458 0.581,-0.415C0.605,-0.372 0.617,-0.325 0.617,-0.273L0.617,-0.038C0.617,-0.027 0.613,-0.018 0.606,-0.011C0.599,-0.004 0.589,-0 0.578,-0C0.567,-0 0.557,-0.004 0.55,-0.011C0.543,-0.018 0.539,-0.027 0.539,-0.038L0.539,-0.098C0.516,-0.066 0.486,-0.041 0.45,-0.023C0.414,-0.004 0.374,0.005 0.331,0.005C0.28,0.005 0.234,-0.007 0.194,-0.032C0.153,-0.056 0.12,-0.089 0.097,-0.132C0.073,-0.174 0.061,-0.221 0.061,-0.273C0.061,-0.325 0.073,-0.372 0.098,-0.415C0.122,-0.458 0.155,-0.491 0.198,-0.516C0.24,-0.54 0.287,-0.552 0.339,-0.552ZM0.339,-0.065C0.377,-0.065 0.411,-0.074 0.442,-0.092C0.473,-0.11 0.497,-0.135 0.515,-0.167C0.532,-0.198 0.541,-0.234 0.541,-0.273C0.541,-0.312 0.532,-0.348 0.515,-0.38C0.497,-0.411 0.473,-0.436 0.442,-0.455C0.411,-0.473 0.377,-0.482 0.339,-0.482C0.301,-0.482 0.267,-0.473 0.235,-0.455C0.204,-0.436 0.18,-0.411 0.163,-0.38C0.145,-0.348 0.136,-0.312 0.136,-0.273C0.136,-0.234 0.145,-0.198 0.163,-0.167C0.18,-0.135 0.204,-0.11 0.235,-0.092C0.267,-0.074 0.301,-0.065 0.339,-0.065Z" style="fill:white;fill-rule:nonzero;"/>
                </g>
                <g transform="matrix(178.837,0,0,178.837,717.315,0)">
                    <path d="M0.331,-0.077C0.342,-0.077 0.35,-0.073 0.357,-0.066C0.364,-0.059 0.367,-0.049 0.367,-0.038C0.367,-0.027 0.363,-0.018 0.355,-0.011C0.347,-0.004 0.337,-0 0.325,-0L0.304,-0C0.269,-0 0.237,-0.009 0.209,-0.025C0.181,-0.043 0.159,-0.066 0.143,-0.095C0.128,-0.124 0.12,-0.156 0.12,-0.193L0.12,-0.46L0.055,-0.46C0.044,-0.46 0.036,-0.463 0.029,-0.469C0.023,-0.476 0.02,-0.484 0.02,-0.493C0.02,-0.503 0.023,-0.511 0.029,-0.518C0.036,-0.524 0.044,-0.527 0.055,-0.527L0.12,-0.527L0.12,-0.682C0.12,-0.693 0.124,-0.703 0.131,-0.71C0.138,-0.717 0.147,-0.721 0.158,-0.721C0.169,-0.721 0.179,-0.717 0.186,-0.71C0.193,-0.703 0.197,-0.693 0.197,-0.682L0.197,-0.527L0.31,-0.527C0.321,-0.527 0.329,-0.524 0.336,-0.518C0.342,-0.511 0.345,-0.503 0.345,-0.493C0.345,-0.484 0.342,-0.476 0.336,-0.469C0.329,-0.463 0.321,-0.46 0.31,-0.46L0.197,-0.46L0.197,-0.193C0.197,-0.159 0.207,-0.131 0.227,-0.11C0.247,-0.088 0.273,-0.077 0.304,-0.077L0.331,-0.077Z" style="fill:white;fill-rule:nonzero;"/>
                </g>
                <g transform="matrix(178.837,0,0,178.837,789.208,0)">
                    <path d="M0.323,-0.552C0.372,-0.552 0.416,-0.541 0.454,-0.518C0.492,-0.495 0.522,-0.463 0.543,-0.422C0.564,-0.381 0.574,-0.335 0.574,-0.283C0.574,-0.272 0.571,-0.264 0.564,-0.258C0.557,-0.251 0.549,-0.248 0.538,-0.248L0.134,-0.248C0.139,-0.193 0.161,-0.149 0.198,-0.115C0.235,-0.081 0.282,-0.064 0.338,-0.064C0.362,-0.064 0.386,-0.068 0.41,-0.077C0.435,-0.085 0.454,-0.095 0.469,-0.108C0.478,-0.115 0.487,-0.118 0.496,-0.118C0.503,-0.118 0.511,-0.115 0.518,-0.11C0.527,-0.102 0.531,-0.093 0.531,-0.083C0.531,-0.074 0.527,-0.067 0.52,-0.06C0.498,-0.041 0.47,-0.026 0.436,-0.014C0.402,-0.001 0.369,0.005 0.338,0.005C0.285,0.005 0.237,-0.007 0.195,-0.031C0.153,-0.054 0.12,-0.087 0.097,-0.13C0.073,-0.172 0.061,-0.22 0.061,-0.273C0.061,-0.327 0.072,-0.375 0.095,-0.418C0.117,-0.46 0.148,-0.493 0.188,-0.517C0.227,-0.54 0.272,-0.552 0.323,-0.552ZM0.323,-0.483C0.272,-0.483 0.23,-0.467 0.197,-0.436C0.164,-0.405 0.143,-0.363 0.136,-0.312L0.502,-0.312C0.497,-0.363 0.478,-0.405 0.446,-0.436C0.414,-0.467 0.373,-0.483 0.323,-0.483Z" style="fill:white;fill-rule:nonzero;"/>
                </g>
            </g>
        </g>
    </g>
</svg>
